<mxfile host="65bd71144e">
    <diagram id="Uiitnx28BqlM5hej8tdQ" name="Page-1">
        <mxGraphModel dx="1089" dy="825" grid="1" gridSize="10" guides="1" tooltips="1" connect="1" arrows="1" fold="1" page="1" pageScale="1" pageWidth="850" pageHeight="1100" math="0" shadow="0">
            <root>
                <mxCell id="0"/>
                <mxCell id="1" parent="0"/>
                <mxCell id="4" value="" style="ellipse;whiteSpace=wrap;html=1;aspect=fixed;fillColor=#FF0000;fillStyle=auto;opacity=50;" vertex="1" parent="1">
                    <mxGeometry x="350" y="90" width="430" height="430" as="geometry"/>
                </mxCell>
                <mxCell id="2" value="" style="ellipse;whiteSpace=wrap;html=1;aspect=fixed;fillColor=#00FF00;fillStyle=auto;opacity=50;" vertex="1" parent="1">
                    <mxGeometry x="70" y="90" width="430" height="430" as="geometry"/>
                </mxCell>
                <mxCell id="5" value="" style="ellipse;whiteSpace=wrap;html=1;aspect=fixed;fillColor=#0000FF;fillStyle=auto;opacity=50;" vertex="1" parent="1">
                    <mxGeometry x="205" y="307" width="430" height="430" as="geometry"/>
                </mxCell>
                <mxCell id="6" value="&lt;font style=&quot;font-size: 29px;&quot; face=&quot;Consolas&quot;&gt;Ability&lt;/font&gt;" style="text;html=1;strokeColor=none;fillColor=none;align=center;verticalAlign=middle;whiteSpace=wrap;rounded=0;fillStyle=auto;opacity=50;" vertex="1" parent="1">
                    <mxGeometry x="358" y="350" width="135" height="40" as="geometry"/>
                </mxCell>
                <mxCell id="7" value="&lt;font style=&quot;font-size: 40px;&quot; face=&quot;Consolas&quot;&gt;Code&lt;/font&gt;" style="text;html=1;strokeColor=none;fillColor=none;align=center;verticalAlign=middle;whiteSpace=wrap;rounded=0;fillStyle=auto;opacity=50;" vertex="1" parent="1">
                    <mxGeometry x="150" y="230" width="135" height="40" as="geometry"/>
                </mxCell>
                <mxCell id="8" value="&lt;font face=&quot;Consolas&quot;&gt;&lt;span style=&quot;font-size: 40px;&quot;&gt;Data&lt;/span&gt;&lt;/font&gt;" style="text;html=1;strokeColor=none;fillColor=none;align=center;verticalAlign=middle;whiteSpace=wrap;rounded=0;fillStyle=auto;opacity=50;" vertex="1" parent="1">
                    <mxGeometry x="580" y="230" width="135" height="40" as="geometry"/>
                </mxCell>
                <mxCell id="9" value="&lt;font style=&quot;font-size: 40px;&quot; face=&quot;Consolas&quot;&gt;Objects&lt;/font&gt;" style="text;html=1;strokeColor=none;fillColor=none;align=center;verticalAlign=middle;whiteSpace=wrap;rounded=0;fillStyle=auto;opacity=50;" vertex="1" parent="1">
                    <mxGeometry x="310" y="590" width="230" height="40" as="geometry"/>
                </mxCell>
            </root>
        </mxGraphModel>
    </diagram>
</mxfile>
